<?xml version="1.0" encoding="UTF-8"?>
<svg width="146.49" height="37.267" version="1.1" viewBox="0 0 161.14 40.994" xmlns="http://www.w3.org/2000/svg" xmlns:cc="http://creativecommons.org/ns#" xmlns:dc="http://purl.org/dc/elements/1.1/" xmlns:rdf="http://www.w3.org/1999/02/22-rdf-syntax-ns#">
 <metadata>
  <rdf:RDF>
   <cc:Work rdf:about="">
    <dc:format>image/svg+xml</dc:format>
    <dc:type rdf:resource="http://purl.org/dc/dcmitype/StillImage"/>
    <dc:title/>
   </cc:Work>
  </rdf:RDF>
 </metadata>
 <g transform="translate(-18.266 -78.842)" stroke-width=".32">
  <path d="m143.36 119.01c-0.616-0.47094-1.8674-1.5493-2.7808-2.3964-0.91347-0.84712-1.8886-1.5402-2.1669-1.5402s-1.0429 0.3544-1.6992 0.78756c-2.7311 1.8027-6.1723 2.2706-8.5531 1.1628-1.6884-0.78554-3.8077-3.0238-4.631-4.8908-0.96603-2.1908-1.2588-5.3716-0.95675-10.395 0.25674-4.2697 1.0569-8.0491 2.2918-10.825 0.94051-2.114 3.2215-5.9299 4.0522-6.7791 0.48475-0.4955 1.1301-1.2998 1.4341-1.7873 0.30401-0.48749 1.1452-1.3155 1.8692-1.84 1.044-0.75624 1.6485-0.95365 2.9203-0.95365 4.432 0 7.3793 2.1957 9.8792 7.36 1.7996 3.7176 2.1768 5.0296 2.1791 7.5801 3e-3 3.4996-1.8844 9.6697-4.1303 13.501-0.47671 0.81327-0.97018 1.7533-1.0966 2.089-0.25016 0.66426 0.609 2.1579 2.6861 4.6697 0.65493 0.792 1.4323 1.919 1.7275 2.5044 0.4921 0.97593 0.49447 1.1288 0.0285 1.84-0.66148 1.0096-1.6555 0.98099-3.0534-0.0877z" fill="#b75254"/>
  <path d="m133 112.44c1.8766-1.2721 1.9256-1.6804 0.45347-3.7791-3.3798-4.8183-2.9898-7.5398 1.0717-7.477 1.475 0.0228 1.6903 0.13367 2.9396 1.5136 1.5455 1.707 1.5441 1.7078 2.7923-1.3782 1.2252-3.029 1.5903-4.6819 1.5904-7.2 2.3e-4 -3.4971-1.8478-8.1932-3.8413-9.7613-1.0776-0.84768-1.6381-0.80551-2.0016 0.1506-0.16505 0.43412-0.88926 1.2161-1.6094 1.7377-2.5955 1.8802-4.8506 5.7183-6.1298 10.433-0.57413 2.1159-0.69898 3.4759-0.71976 7.84-0.0232 4.8805 0.029 5.3813 0.69057 6.6189 1.3052 2.4417 2.5718 2.7878 4.7638 1.3018z" fill="#fff"/>
  <path d="m85.223 117.18-0.89573-0.77047 0.09555-3.7895c0.0819-3.2482-0.02581-4.2695-0.75414-7.1495-2.0724-8.1949-1.0861-19.559 2.0763-23.924 1.4331-1.9784 2.722-2.7489 4.5293-2.7077 2.7209 0.06198 4.0349 1.1635 7.5297 6.312 1.3141 1.936 3.3185 4.712 4.4542 6.1688 1.8206 2.3354 2.0649 2.8142 2.0649 4.0468 0 1.1985-0.16069 1.5391-1.1259 2.3866-1.5389 1.3512-2.1838 1.4778-7.5282 1.4778-3.8258 0-4.8006-0.09599-5.4773-0.53939-1.0032-0.65733-1.3043-1.6343-0.7415-2.4057 0.35671-0.48889 1.0679-0.5988 4.7553-0.73487 3.5497-0.13099 4.4367-0.26095 4.892-0.71673 0.52824-0.5288 0.48606-0.65722-0.8408-2.56-0.76832-1.1018-2.5451-3.4793-3.9484-5.2833-2.7515-3.5372-3.3943-3.8942-4.6095-2.56-1.7361 1.9061-2.4189 5.2383-2.4423 11.92-0.01693 4.8202 0.0514 5.4141 1.167 10.144 0.65173 2.763 1.2719 6.075 1.3782 7.36 0.17252 2.0863 0.11839 2.4305-0.50593 3.2163-0.93204 1.1732-2.7784 1.2228-4.0727 0.10952z" fill="#10795a"/>
  <path d="m158.53 115.43c-2.3612-1.4398-2.9921-4.3813-2.2031-10.272 0.34809-2.5987 0.47981-6.0644 0.44826-11.795-0.0429-7.796-0.0188-8.1405 0.61405-8.7733 1.3482-1.3482 4.4416-0.6878 5.6878 1.2142 0.48124 0.73446 0.48254 1.0812 0.0165 4.3955-0.27828 1.979-0.66461 6.0462-0.8585 9.0382-0.19389 2.992-0.42318 6.304-0.50953 7.36-0.23498 2.8735-0.17035 2.9115 3.8347 2.2546 2.4382-0.39992 4.6804-0.52419 8.025-0.44477 4.2301 0.10044 4.7019 0.17068 5.3234 0.7926 0.81116 0.81173 0.61969 1.81-0.48611 2.5346-0.40948 0.26831-2.7917 0.7514-5.4024 1.0956-5.4097 0.71314-6.6392 1.0062-9.5502 2.2764-2.489 1.0861-3.5721 1.1569-4.9399 0.32279z" fill="#b75254"/>
  <path d="m111.16 113.68c-1.244-1.244-1.3979-1.5594-1.3979-2.865 0-1.8779 0.42376-2.7827 1.6976-3.6246 1.5511-1.0251 2.9513-1.1693 4.5381-0.46744 2.7015 1.195 3.0328 4.7243 0.67789 7.2213-0.93354 0.98984-1.2624 1.1336-2.5934 1.1336-1.3731 0-1.663-0.13865-2.9222-1.3979z" fill="#b75254"/>
  <g>
   <path d="m51.448 113.14c-2.1479-1.134-1.9892-2.3127 0.90954-6.7533 2.3281-3.5664 3.8094-6.5212 5.6688-11.307 2.5213-6.4902 5.1282-11.866 5.9738-12.318 1.4935-0.79929 4.1631 0.59776 4.1631 2.1786 0 0.27168 0.63516 2.8803 1.4115 5.7968s1.5129 6.0949 1.6368 7.0629c0.29521 2.3053 0.56395 2.7552 1.9117 3.2 1.1998 0.39597 1.9441 1.3597 1.5498 2.0066-0.13186 0.21637-0.56713 0.65318-0.96727 0.97069-0.70795 0.56178-0.72211 0.68413-0.52626 4.5484 0.23086 4.5551 0.08324 4.9543-1.8323 4.9543-1.8008 0-2.544-1.0831-2.544-3.7074 0-4.3-0.9086-6.2158-2.731-5.7584-0.68555 0.17206-3.4682-0.14619-5.6736-0.64888-0.868-0.19786-0.92908-0.10919-3.2641 4.738-1.8213 3.7806-2.5745 5.0284-3.2105 5.3182-1.0458 0.47649-1.0407 0.47707-2.476-0.28074z" fill="#10795a"/>
   <path d="m66.518 98.79c0.32094-0.20335 0.37343-0.63883 0.20044-1.6627-0.2838-1.6798-1.3861-5.1433-1.7615-5.5347-0.35338-0.3684-1.3722 1.3177-2.4485 4.0524-1.1014 2.7985-1.0266 2.8762 3.2547 3.3827 0.176 0.02082 0.51567-0.08612 0.75482-0.23765z" fill="#fff"/>
   <path d="m21.177 112.52c-0.5862-0.13866-1.4862-0.65486-2-1.1471-1.2325-1.1808-1.217-2.4375 0.05506-4.4726 1.8273-2.9234 11.557-11.932 16.211-15.009 2.2089-1.4604 1.863-1.8957-1.3471-1.6955-2.1266 0.13268-3.1635 0.38248-4.8359 1.1651-2.6176 1.2249-4.0388 1.2835-5.1116 0.21076-0.94442-0.94442-1.0116-2.1884-0.16406-3.0359 1.6719-1.6719 8.8483-2.8089 14.257-2.2588 3.935 0.40027 5.0198 0.83495 5.6041 2.2455 0.3642 0.87925 0.33859 1.0958-0.21932 1.8551-0.34741 0.47279-2.7257 2.3716-5.285 4.2196-5.4537 3.9379-9.3743 7.2195-12.077 10.109-2.7378 2.9267-2.6582 3.1458 1.0191 2.8054 4.0061-0.37079 11.488-0.28105 13.831 0.16589 1.0509 0.20052 2.1296 0.58336 2.397 0.85075 0.4319 0.4319 0.43293 0.58009 0.0092 1.3278-0.8077 1.4252-2.4068 1.7591-9.757 2.0374-3.696 0.13991-7.584 0.40877-8.64 0.59747-2.15 0.38417-2.4361 0.38629-3.9458 0.0292z" fill="#10795a"/>
  </g>
 </g>
</svg>
