<svg version="1.1" viewBox="0 0 1188.7 1335.2" xmlns="http://www.w3.org/2000/svg">
 <g transform="translate(-81.612 -10.506)">
  <g stroke-width="1.3333">
   <path d="m655.57 1344.5c-40.378-6.8137-76.638-36.604-90.946-74.719-7.4327-19.801-9.5376-45.01-5.5139-66.04 1.0899-5.6968 1.8189-10.521 1.6199-10.72-1.154-1.154-273.22-157.82-274.07-157.82-0.568 0-2.795 1.8611-4.9489 4.1357s-7.5161 6.7039-11.916 9.8428c-41.407 29.539-97.038 29.551-138.67 0.031-10.502-7.4465-25.538-23.382-31.82-33.723-23.342-38.425-23.605-86.125-0.6875-124.7 13.422-22.592 40.236-43.843 65.18-51.656l7.3333-2.2969v-317.78l-10-3.3517c-36.079-12.092-63.753-41.439-75.561-80.128-3.2184-10.546-3.5735-13.762-3.5735-32.376 0-18.621 0.3542-21.828 3.5792-32.396 10.21-33.457 30.16-57.662 60.398-73.279 19.44-10.04 29.402-12.319 53.824-12.313 22.844 0.01 30.217 1.4019 48.007 9.0879 11.604 5.0136 22.606 12.046 31.856 20.362 3.5911 3.2287 6.9369 5.8704 7.4351 5.8704 0.9359 0 271.26-155.69 273.02-157.24 0.5439-0.4798 0.094-5.5501-1-11.267-11.959-62.503 25.3-121.79 87.344-139 12.288-3.4066 46.379-3.4066 58.667 0 45.042 12.487 78.056 47.227 87.22 91.779 2.6584 12.925 2.7133 33.688 0.1248 47.217-1.0939 5.7173-1.5439 10.801-1 11.297 1.4036 1.2802 269.4 155.86 271.83 156.79 1.2099 0.4643 3.9664-1.0673 6.9174-3.8434 17.036-16.027 38.837-26.72 62.142-30.479 13.83-2.231 38.732-0.9457 50.716 2.6178 40.867 12.152 70.479 41.571 82.939 82.401 3.2213 10.556 3.576 13.768 3.576 32.384 0 18.621-0.3543 21.828-3.5792 32.395-11.802 38.675-39.476 68.016-75.555 80.109l-10 3.3517v317.78l7.3334 2.2969c16.234 5.0848 34.687 16.397 47.14 28.899 45.937 46.117 47.278 118.93 3.0467 165.49-24.021 25.288-52.851 37.677-87.678 37.677-30.567 0-62.066-12.791-81.78-33.208-2.8988-3.0023-5.8166-5.4588-6.484-5.4588-0.873 0-269.98 154.66-272.6 156.66-0.1962 0.1503 0.6998 4.1128 1.991 8.8055 1.7718 6.4395 2.349 13.601 2.3531 29.199 0 17.615-0.4475 22.233-3.0619 31.274-12.902 44.613-50.663 78.785-95.013 85.981-9.7642 1.5843-30.885 1.6095-40.138 0.048zm246.32-277.27c74.013-42.719 134.76-77.84 134.99-78.047 0.2288-0.2073-0.4699-4.7896-1.5528-10.183-6.3852-31.803-2.2624-59.904 12.6-85.88 6.0267-10.533 19.129-26.013 28.742-33.96 11.422-9.4412 32.862-20.506 41.795-21.57l3.3333-0.397v-318.42l-8.6666-2.9276c-30.147-10.184-53.709-30.866-68.337-59.986-9.947-19.802-14.298-43.61-11.765-64.37 0.7806-6.3963 2.0126-13.69 2.7378-16.208 0.7253-2.5181 1.1789-4.6809 1.0081-4.8062-3.0316-2.2243-272.58-157.11-274.12-157.51-1.2527-0.3273-6.7533 2.879-12.856 7.494-12.845 9.7133-23.968 15.685-40 21.477-10.762 3.8874-13.858 4.3944-30 4.9126-20.557 0.6598-30.275-0.8978-47.824-7.6655-11.336-4.3717-31.294-16.752-38.292-23.753l-3.8834-3.8851-136.67 79.074c-75.167 43.491-137.12 79.262-137.67 79.493-0.5512 0.2303-0.3949 2.5183 0.3474 5.0845 2.8764 9.9443 4.0368 27.8 2.621 40.333-5.3235 47.123-35.848 85.417-79.966 100.32l-8.6666 2.9275-0.3388 158.92c-0.2696 126.51 0 159.01 1.3334 159.37 12.284 3.3509 18.309 5.8527 28.367 11.779 21.736 12.808 42.11 35.498 50.41 56.141 7.4133 18.438 10.486 44.179 7.6029 63.7-0.9079 6.1478-1.7978 12.452-1.9776 14.01-0.2825 2.4466 18.376 13.63 137.04 82.142l137.37 79.31 9.4283-7.9342c12.088-10.172 24.854-17.265 40.762-22.646 12.358-4.1807 13.234-4.2848 36-4.2762 21.954 0.01 24.003 0.2296 34.667 3.7414 18.486 6.0881 39.002 18.332 49.304 29.425 1.8171 1.9567 4.2609 3.3073 5.4305 3.0014 1.1696-0.3058 62.683-35.508 136.7-78.226z" fill="#e434aa"/>
   <path d="m816.06 985.76c-25.05-4.3999-89.94-28.069-141.33-51.552-87.622-40.037-173.22-118.91-241.29-222.33-7.9637-12.1-16.681-25.3-19.371-29.333-24.168-36.231-43.952-79.551-51.15-112-6.5371-29.471-7.5491-46.894-4.1973-72.265 2.7262-20.635 7.4168-37.192 15.228-53.751 9.0432-19.172 19.253-33.226 37.388-51.466 12.359-12.431 17.233-16.372 24.726-20l9.3333-4.518 23.984 0.2194c33.052 0.3023 37.054 0.9184 43.439 6.6869 8.7065 7.8658 9.066 8.6669 31.908 71.094 5.2324 14.3 13.475 36.5 18.318 49.333 12.81 33.949 12.653 33.425 12.019 40.177-0.9317 9.9292-11.488 27.109-27.654 45.006-7.6922 8.516-15.743 16.972-17.891 18.791-5.6756 4.8067-11.457 14.575-11.457 19.358 0 9.7334 23.502 49.4 48.898 82.531 12.548 16.37 33.823 39.418 48.956 53.037 31.125 28.011 59.232 46.982 99.535 67.184 28.515 14.293 34.558 15.965 43.087 11.918 5.9055-2.8023 43.506-43.964 59.444-65.074 8.7316-11.565 15.614-14.98 25.651-12.726 8.5662 1.923 24.71 9.5338 61.095 28.802 89.565 47.431 88.631 46.827 90.023 58.189 1.7018 13.891-3.8526 42.579-12.76 65.906-9.2473 24.216-40.514 50.419-78.208 65.542-15.394 6.176-24.112 8.3288-45.721 11.29-18.191 2.4928-27.62 2.4832-42-0.043z" fill="#00a758"/>
  </g>
 </g>
</svg>
